<svg width="94" height="76" viewBox="0 0 94 76" fill="none" xmlns="http://www.w3.org/2000/svg">
<path d="M70.7727 65.8568L46.9997 71.0092L23.2264 65.8568L17.7405 18.0183H76.2592L70.7727 65.8568Z" fill="#2062AF"/>
<path d="M46.9994 21.8932V66.8997L47.0531 66.9115L66.2916 62.7417L70.7322 21.8932H46.9994Z" fill="#3C9CD7"/>
<path d="M33.5075 10.9899V8.14252H38.6686V5.02686H29.6367V13.833H38.6686V10.9899H33.5075ZM47.9528 8.14252H51.561V5.02686H42.5283V8.14252C43.7368 9.11523 44.367 9.5808 46.1148 10.9876C45.0931 10.9876 42.5283 10.9906 42.5283 10.9904V13.833H51.561V10.9899L47.9528 8.14252ZM60.755 8.14252H64.3631V5.02686H55.3301V8.14252C56.5385 9.11523 57.1691 9.5808 58.9169 10.9876C57.8955 10.9876 55.3301 10.9906 55.3301 10.9904V13.833H64.3633V10.9899L60.755 8.14252Z" fill="black"/>
<path d="M46.9784 33.8547L29.9633 39.5587L30.5275 45.206L46.9784 39.5443L64.4778 33.522L65.2033 27.7451L46.9784 33.8547Z" fill="white"/>
<path d="M29.9631 39.5586L30.5274 45.206L46.9782 39.5443V33.8547L29.9631 39.5586Z" fill="url(#paint0_linear_16_334)"/>
<path d="M65.2034 27.7452L46.9784 33.8547V39.5443L64.4778 33.522L65.2034 27.7452Z" fill="url(#paint1_linear_16_334)"/>
<path d="M29.9893 39.5587L30.5537 45.206L55.7953 45.2707L55.2307 52.8004L46.9248 54.6826L38.9403 53.0599L38.4565 48.3863H31.0375L32.0053 57.4089L47.0054 60.9789L61.9242 57.4736L63.8598 39.5587H29.9893Z" fill="url(#paint2_linear_16_334)"/>
<path opacity="0.05" d="M46.9784 39.5587H29.9633L30.5275 45.206L46.9784 45.2483V39.5587ZM46.9784 54.6647L46.8977 54.6828L38.9143 53.06L38.4305 48.3864H31.0117L31.9793 57.409L46.9784 60.979V54.6647Z" fill="black"/>
<path d="M28.4309 27.7452H65.2034L64.4778 33.5222H29.3179L28.4309 27.7452Z" fill="url(#paint3_linear_16_334)"/>
<path opacity="0.05" d="M46.9784 27.7452H28.4309L29.3179 33.5222H46.9784V27.7452Z" fill="black"/>
<defs>
<linearGradient id="paint0_linear_16_334" x1="38.4707" y1="45.2061" x2="38.4707" y2="33.8548" gradientUnits="userSpaceOnUse">
<stop offset="0.387" stop-color="#D1D3D4" stop-opacity="0"/>
<stop offset="1" stop-color="#D1D3D4"/>
</linearGradient>
<linearGradient id="paint1_linear_16_334" x1="56.0907" y1="39.5445" x2="56.0907" y2="27.7453" gradientUnits="userSpaceOnUse">
<stop offset="0.387" stop-color="#D1D3D4" stop-opacity="0"/>
<stop offset="1" stop-color="#D1D3D4"/>
</linearGradient>
<linearGradient id="paint2_linear_16_334" x1="29.9893" y1="50.2689" x2="63.8596" y2="50.2689" gradientUnits="userSpaceOnUse">
<stop stop-color="#E8E7E5"/>
<stop offset="1" stop-color="white"/>
</linearGradient>
<linearGradient id="paint3_linear_16_334" x1="28.4309" y1="30.6337" x2="65.2032" y2="30.6337" gradientUnits="userSpaceOnUse">
<stop stop-color="#E8E7E5"/>
<stop offset="1" stop-color="white"/>
</linearGradient>
</defs>
</svg>
