<svg width="27" height="24" viewBox="0 0 27 24" fill="none" xmlns="http://www.w3.org/2000/svg">
<g clip-path="url(#clip0_406_179)">
<path d="M15.4726 12.3299L14.4372 11.3886C14.5501 11.1773 14.6491 10.9603 14.7336 10.7381H16.1979C16.679 10.7381 17.0692 10.3835 17.0692 9.94596V7.62378C17.0692 7.18637 16.6791 6.83162 16.1979 6.83162H14.7335C14.649 6.60956 14.55 6.39251 14.4372 6.18119L15.4726 5.23986C15.8129 4.93053 15.8129 4.42895 15.4726 4.11962L13.6664 2.4776C13.326 2.16835 12.7745 2.16835 12.4341 2.4776L11.3987 3.41893C11.1662 3.3163 10.9276 3.22628 10.6832 3.14952V1.81828C10.6832 1.38087 10.2931 1.02612 9.81182 1.02612H7.25742C6.77627 1.02612 6.38605 1.38079 6.38605 1.81828V3.14952C6.14178 3.22637 5.90302 3.31622 5.67058 3.41893L4.6352 2.4776C4.47182 2.32907 4.25013 2.2456 4.01902 2.2456C3.78791 2.2456 3.56631 2.32907 3.40284 2.4776L1.59653 4.11962C1.43316 4.26814 1.34133 4.46968 1.34133 4.67978C1.34133 4.88988 1.43316 5.09134 1.59653 5.23994L2.632 6.18127C2.51911 6.39251 2.42009 6.60956 2.33564 6.8317H0.871378C0.390133 6.8317 0 7.18637 0 7.62378V9.94604C0 10.3835 0.390133 10.7382 0.871378 10.7382H2.33564C2.42027 10.9603 2.51911 11.1773 2.63209 11.3887L1.59662 12.33C1.25636 12.6393 1.25636 13.1409 1.59662 13.4502L3.40284 15.0922C3.7432 15.4014 4.29476 15.4016 4.63511 15.0922L5.67058 14.1509C5.90293 14.2536 6.14178 14.3436 6.38605 14.4204V15.7516C6.38605 16.189 6.77618 16.5438 7.25742 16.5438H9.81191C10.2931 16.5438 10.6833 16.1891 10.6833 15.7516V14.4204C10.9275 14.3435 11.1663 14.2536 11.3988 14.1509L12.4342 15.0922C12.7746 15.4015 13.3261 15.4015 13.6665 15.0922L15.4727 13.4502C15.813 13.1408 15.813 12.6392 15.4726 12.3299ZM13.2292 9.76883C13.1092 10.2439 12.904 10.6941 12.6194 11.1069C12.4036 11.4197 12.4544 11.8266 12.7416 12.0876L13.6243 12.89L13.0503 13.4119L12.1676 12.6094C11.8803 12.3483 11.4328 12.3024 11.0887 12.4983C10.6345 12.7571 10.1394 12.9436 9.61707 13.0525C9.22116 13.1351 8.94062 13.4555 8.94062 13.8247V14.9595H8.12889V13.8247C8.12889 13.4555 7.84836 13.1352 7.45245 13.0525C6.93013 12.9436 6.43502 12.7571 5.9808 12.4983C5.63698 12.3025 5.18924 12.3482 4.90196 12.6094L4.0192 13.4119L3.44524 12.89L4.32791 12.0876C4.61511 11.8265 4.66578 11.4197 4.45013 11.1069C4.16551 10.6941 3.96036 10.2439 3.84036 9.76883C3.74951 9.40899 3.39724 9.15396 2.99111 9.15396H1.74267V8.41602H2.99084C3.39689 8.41602 3.74916 8.16099 3.84009 7.80123C3.96018 7.32608 4.16525 6.87598 4.44987 6.46329C4.66569 6.15049 4.61493 5.74354 4.32773 5.48245L3.44498 4.67994L4.01902 4.15816L4.90169 4.96067C5.18889 5.22184 5.63662 5.26766 5.98062 5.0717C6.43467 4.81295 6.92978 4.62653 7.45218 4.51752C7.84809 4.43493 8.12862 4.11461 8.12862 3.7454V2.61045H8.94036V3.74523C8.94036 4.11445 9.22089 4.43469 9.6168 4.51736C10.1393 4.62637 10.6343 4.81279 11.0884 5.07154C11.4324 5.26766 11.8802 5.22176 12.1673 4.96051L13.05 4.158L13.624 4.67978L12.7412 5.48228C12.454 5.74346 12.4034 6.15033 12.6191 6.46313C12.9037 6.87582 13.1088 7.326 13.2289 7.80107C13.3197 8.16083 13.6721 8.41586 14.0781 8.41586H15.3263V9.1538H14.0781C13.6722 9.15388 13.32 9.40891 13.2292 9.76883Z" fill="#E84949"/>
<path d="M8.53463 5.74097C6.68832 5.74097 5.18628 7.10646 5.18628 8.78493C5.18628 10.4634 6.68832 11.8289 8.53463 11.8289C10.3809 11.8289 11.883 10.4634 11.883 8.78493C11.883 7.10646 10.381 5.74097 8.53463 5.74097ZM8.53463 10.2446C7.64921 10.2446 6.92895 9.58986 6.92895 8.78493C6.92895 7.98 7.6493 7.32521 8.53463 7.32521C9.41997 7.32521 10.1403 7.98 10.1403 8.78493C10.1403 9.58986 9.42006 10.2446 8.53463 10.2446Z" fill="#E84949"/>
<path d="M25.8293 17.8656C26.2079 17.8021 26.4582 17.4717 26.3883 17.1275L26.0595 15.5071C26.026 15.3417 25.9215 15.1954 25.7694 15.1001C25.6171 15.0048 25.4293 14.9684 25.2476 14.9989L24.2805 15.161C24.2055 15.044 24.1244 14.9303 24.0375 14.8202L24.5951 14.084C24.6999 13.9454 24.74 13.7749 24.7065 13.6096C24.673 13.4443 24.5686 13.2979 24.4163 13.2027L22.9233 12.2682C22.6065 12.0698 22.1723 12.1424 21.954 12.4307L21.3963 13.167C21.2522 13.1324 21.1065 13.1042 20.9595 13.0823L20.7811 12.2032C20.7112 11.8591 20.3473 11.6313 19.9692 11.695L18.1867 11.9939C18.0048 12.0244 17.8439 12.1193 17.7391 12.2577C17.6343 12.3962 17.5942 12.5668 17.6277 12.732L17.8061 13.6112C17.6773 13.6794 17.5522 13.7531 17.4311 13.8321L16.6213 13.3252C16.4689 13.2299 16.2813 13.1936 16.0995 13.2239C15.9176 13.2544 15.7567 13.3493 15.6519 13.4878L14.624 14.845C14.5191 14.9834 14.4791 15.154 14.5126 15.3193C14.5461 15.4846 14.6505 15.631 14.8028 15.7263L15.6127 16.2331C15.5746 16.3642 15.5436 16.4966 15.5195 16.6303L14.5524 16.7925C14.3705 16.8229 14.2096 16.9179 14.1048 17.0562C13.9999 17.1947 13.9599 17.3653 13.9934 17.5306L14.3223 19.151C14.3921 19.4952 14.7555 19.7231 15.1342 19.6592L16.1013 19.497C16.1762 19.6141 16.2574 19.7278 16.3442 19.8379L15.7866 20.5741C15.6818 20.7126 15.6417 20.8831 15.6752 21.0484C15.7087 21.2137 15.8132 21.3601 15.9655 21.4553L17.4584 22.3898C17.7752 22.5882 18.2095 22.5155 18.4278 22.2273L18.9854 21.4911C19.1295 21.5256 19.2751 21.5538 19.4223 21.5758L19.6007 22.4549C19.6626 22.7602 19.9557 22.9737 20.2854 22.9737C20.3273 22.9737 20.3699 22.9703 20.4126 22.9631L22.1951 22.6642C22.3769 22.6338 22.5379 22.5388 22.6427 22.4005C22.7475 22.262 22.7876 22.0914 22.7541 21.9261L22.5757 21.0469C22.7045 20.9787 22.8295 20.905 22.9506 20.8261L23.7604 21.333C23.9127 21.4284 24.1002 21.4648 24.2822 21.4343C24.464 21.4038 24.625 21.3088 24.7298 21.1704L25.7577 19.8132C25.976 19.5249 25.896 19.1304 25.579 18.932L24.7691 18.425C24.8071 18.294 24.8382 18.1615 24.8623 18.0279L25.8293 17.8656ZM24.0973 16.8674C23.7776 16.921 23.5412 17.1682 23.5273 17.4633C23.5113 17.8007 23.4338 18.1309 23.2969 18.4449C23.1772 18.7195 23.282 19.0329 23.5496 19.2004L24.2143 19.6165L23.9769 19.9299L23.3124 19.5139C23.0446 19.3463 22.6852 19.3691 22.4459 19.5688C22.172 19.7971 21.8603 19.9808 21.5193 20.1147C21.221 20.2319 21.0513 20.521 21.1103 20.8114L21.2567 21.533L20.8452 21.602L20.6988 20.8805C20.6399 20.59 20.3679 20.375 20.0433 20.3623C19.6719 20.3477 19.3087 20.2772 18.9633 20.1529C18.8796 20.1227 18.7927 20.1083 18.7068 20.1083C18.4827 20.1083 18.2655 20.2069 18.1324 20.3826L17.6748 20.9868L17.3301 20.7711L17.7877 20.1669C17.9719 19.9236 17.9469 19.5969 17.7272 19.3792C17.4761 19.1303 17.2741 18.8469 17.1266 18.5367C16.9976 18.2656 16.679 18.1113 16.3603 18.165L15.5666 18.2981L15.4906 17.924L16.2844 17.7909C16.604 17.7374 16.8405 17.4901 16.8543 17.195C16.8703 16.8576 16.9479 16.5274 17.0847 16.2132C17.2045 15.9387 17.0996 15.6254 16.8319 15.4578L16.1673 15.0419L16.4047 14.7285L17.0693 15.1445C17.3371 15.3122 17.6963 15.2892 17.9358 15.0895C18.2096 14.8612 18.5214 14.6776 18.8625 14.5435C19.1607 14.4263 19.3303 14.1373 19.2714 13.8469L19.125 13.1253L19.5365 13.0563L19.6829 13.7779C19.7418 14.0684 20.0138 14.2834 20.3384 14.296C20.7095 14.3105 21.0727 14.381 21.4182 14.5054C21.7205 14.6144 22.065 14.5189 22.2492 14.2757L22.7069 13.6714L23.0516 13.8872L22.594 14.4914C22.4097 14.7348 22.4348 15.0615 22.6544 15.2792C22.9055 15.5281 23.1076 15.8114 23.255 16.1214C23.3838 16.3926 23.7021 16.547 24.0213 16.4933L24.8151 16.3602L24.891 16.7343L24.0973 16.8674Z" fill="#E84949"/>
<path d="M21.5829 15.491C21.0429 15.153 20.3902 15.0265 19.7455 15.1345C19.1007 15.2427 18.5408 15.5727 18.1689 16.0636C17.4013 17.0771 17.6839 18.4694 18.7987 19.1672C19.2229 19.4327 19.7074 19.56 20.1872 19.56C20.9684 19.56 21.7372 19.2225 22.2128 18.5946C22.9803 17.5811 22.6977 16.1888 21.5829 15.491ZM21.0645 17.8759C20.7329 18.3137 20.0711 18.4247 19.5895 18.1233C19.1078 17.8218 18.9856 17.2202 19.3173 16.7824C19.3174 16.7823 19.3174 16.7823 19.3174 16.7823C19.4779 16.5702 19.7199 16.4276 19.9984 16.3809C20.0633 16.3701 20.1285 16.3647 20.1931 16.3647C20.4058 16.3647 20.6134 16.4229 20.7923 16.5349C21.274 16.8364 21.3961 17.438 21.0645 17.8759Z" fill="#E84949"/>
</g>
<defs>
<clipPath id="clip0_406_179">
<rect width="26.4" height="24" fill="white"/>
</clipPath>
</defs>
</svg>
