<svg width="31" height="30" viewBox="0 0 31 30" fill="none" xmlns="http://www.w3.org/2000/svg">
<g clip-path="url(#clip0_304_60)">
<path d="M15.4995 0.312256C7.21661 0.312256 0.5 7.05403 0.5 15.3727C0.5 22.0255 4.79726 27.6703 10.76 29.6614C11.5095 29.8003 11.7829 29.3353 11.7829 28.9356C11.7829 28.5785 11.7698 27.6316 11.7626 26.3745C7.58919 27.2856 6.70903 24.3558 6.70903 24.3558C6.02774 22.6158 5.04452 22.1537 5.04452 22.1537C3.68194 21.2189 5.1471 21.2368 5.1471 21.2368C6.65194 21.3427 7.44403 22.7895 7.44403 22.7895C8.78339 25.0908 10.956 24.4255 11.8105 24.0398C11.9455 23.0673 12.334 22.4029 12.7623 22.0269C9.43226 21.6461 5.93097 20.3552 5.93097 14.585C5.93097 12.9413 6.515 11.5966 7.47452 10.5427C7.31919 10.1619 6.80484 8.63145 7.62064 6.55855C7.62064 6.55855 8.88064 6.15403 11.7456 8.10209C12.9423 7.76822 14.2255 7.60129 15.5015 7.59451C16.7745 7.60129 18.0587 7.76774 19.2573 8.10209C22.1198 6.15403 23.3779 6.55855 23.3779 6.55855C24.1956 8.63145 23.6813 10.1619 23.5265 10.5427C24.4884 11.5966 25.069 12.9408 25.069 14.585C25.069 20.3697 21.5619 21.6423 18.2203 22.0158C18.7589 22.4808 19.2384 23.3992 19.2384 24.8048C19.2384 26.8187 19.2205 28.4416 19.2205 28.9356C19.2205 29.3392 19.491 29.8081 20.2516 29.6595C26.2066 27.6645 30.5 22.0235 30.5 15.3727C30.5 7.05403 23.7834 0.312256 15.4995 0.312256Z" fill="white"/>
<path d="M15.4995 0.312256C7.21661 0.312256 0.5 7.05403 0.5 15.3727C0.5 22.0255 4.79726 27.6703 10.76 29.6614C11.5095 29.8003 11.7829 29.3353 11.7829 28.9356C11.7829 28.5785 11.7698 27.6316 11.7626 26.3745C7.58919 27.2856 6.70903 24.3558 6.70903 24.3558C6.02774 22.6158 5.04452 22.1537 5.04452 22.1537C3.68194 21.2189 5.1471 21.2368 5.1471 21.2368C6.65194 21.3427 7.44403 22.7895 7.44403 22.7895C8.78339 25.0908 10.956 24.4255 11.8105 24.0398C11.9455 23.0673 12.334 22.4029 12.7623 22.0269C9.43226 21.6461 5.93097 20.3552 5.93097 14.585C5.93097 12.9413 6.515 11.5966 7.47452 10.5427C7.31919 10.1619 6.80484 8.63145 7.62064 6.55855C7.62064 6.55855 8.88064 6.15403 11.7456 8.10209C12.9423 7.76822 14.2255 7.60129 15.5015 7.59451C16.7745 7.60129 18.0587 7.76774 19.2573 8.10209C22.1198 6.15403 23.3779 6.55855 23.3779 6.55855C24.1956 8.63145 23.6813 10.1619 23.5265 10.5427C24.4884 11.5966 25.069 12.9408 25.069 14.585C25.069 20.3697 21.5619 21.6423 18.2203 22.0158C18.7589 22.4808 19.2384 23.3992 19.2384 24.8048C19.2384 26.8187 19.2205 28.4416 19.2205 28.9356C19.2205 29.3392 19.491 29.8081 20.2516 29.6595C26.2066 27.6645 30.5 22.0235 30.5 15.3727C30.5 7.05403 23.7834 0.312256 15.4995 0.312256Z" fill="white"/>
<path d="M23.3928 6.60059C24.1868 8.65123 23.6802 10.1648 23.5259 10.5427C24.4878 11.5966 25.0684 12.9407 25.0684 14.5849C25.0684 20.3696 21.5613 21.6422 18.2197 22.0157C18.7583 22.4807 19.2378 23.3991 19.2378 24.8048C19.2378 26.8187 19.2199 28.4416 19.2199 28.9356C19.2199 29.3391 19.4904 29.808 20.251 29.6595C26.2065 27.6645 30.4999 22.0235 30.4999 15.3727C30.4999 13.5848 30.1883 11.8709 29.6188 10.2799C27.5507 8.10252 25.2489 6.65236 23.3928 6.60059Z" fill="white"/>
<path d="M12.1719 22.8218C12.3403 22.4821 12.5459 22.2179 12.7622 22.0268C10.937 21.8178 9.06252 21.3305 7.73914 19.9858C8.7572 21.6804 10.4149 22.4512 12.1719 22.8218Z" fill="white"/>
<path d="M1.28097 16.3879C1.28097 8.06919 7.99758 1.32742 16.2805 1.32742C20.8797 1.32742 24.9935 3.40758 27.7444 6.67951C25.0274 2.8279 20.5574 0.312256 15.4995 0.312256C7.21661 0.312256 0.5 7.05403 0.5 15.3727C0.5 19.0816 1.8379 22.475 4.05355 25.0981C2.31113 22.6385 1.28097 19.6356 1.28097 16.3879Z" fill="white"/>
<path d="M20.0189 25.8205C20.0189 24.4154 19.5394 23.4955 19.0008 23.0305C22.3424 22.658 25.85 21.3844 25.85 15.6002C25.85 13.956 25.2694 12.6123 24.3065 11.5584C24.4623 11.1776 24.9776 9.64666 24.1579 7.57425C24.1579 7.57425 24.0021 7.52634 23.6803 7.54473C24.0316 9.10763 23.6552 10.2254 23.526 10.5428C24.4879 11.5967 25.0686 12.9409 25.0686 14.5851C25.0686 20.3697 21.5615 21.6423 18.2198 22.0159C18.7584 22.4809 19.2379 23.3992 19.2379 24.8049C19.2379 26.8188 19.22 28.4417 19.22 28.9357C19.22 29.2909 19.4315 29.6959 20.0015 29.6862C20.0053 29.0054 20.0189 27.56 20.0189 25.8205Z" fill="white"/>
<path d="M7.60474 25.6448C7.91974 26.2932 8.97845 27.8464 11.7713 27.5193C11.7675 27.1777 11.7646 26.7949 11.7626 26.3744C9.60796 26.8448 8.33587 26.2903 7.60474 25.6448Z" fill="white"/>
<path d="M8.14328 23.6727C8.04699 23.5275 7.86651 23.2812 7.60474 23.0349C7.77457 23.287 7.95506 23.4985 8.14328 23.6727Z" fill="white"/>
</g>
<defs>
<clipPath id="clip0_304_60">
<rect width="30" height="30" fill="white" transform="translate(0.5)"/>
</clipPath>
</defs>
</svg>
