<svg width="77" height="68" viewBox="0 0 77 68" fill="none" xmlns="http://www.w3.org/2000/svg">
<g clip-path="url(#clip0_16_321)">
<path d="M65.707 13.8621L60.7498 62.2924L38.4667 67.6797L16.2451 62.2999L11.293 13.8621H65.707Z" fill="#E44D26"/>
<path d="M38.5 63.5617L56.5059 59.2085L60.7419 17.8225H38.5V63.5617Z" fill="#F16529"/>
<path d="M28.8633 29.7041H38.5V23.7634H21.4186L21.5815 25.3571L23.2559 41.7281H38.5V35.7874H29.4859L28.8633 29.7041ZM30.3986 44.6986H23.5603L24.5146 54.0264L38.4686 57.4044L38.5 57.3969V51.2161L38.4701 51.223L30.8836 49.4365L30.3986 44.6986Z" fill="#EBEBEB"/>
<path d="M16.3556 0.69873H19.8174V3.68144H22.9842V0.69873H26.4462V9.73113H22.9844V6.70657H19.8176V9.73113H16.3558V0.69873H16.3556ZM30.9984 3.69409H27.9512V0.69873H37.5099V3.69409H34.4608V9.73113H30.999V3.69409H30.9988H30.9984ZM39.0269 0.69873H42.6365L44.8569 3.87248L47.0752 0.69873H50.6863V9.73113H47.2386V5.25418L44.8569 8.46569H44.7972L42.414 5.25418V9.73113H39.0269V0.69873ZM52.4091 0.69873H55.8719V6.74563H60.7402V9.73113H52.4089V0.69873H52.4091Z" fill="black"/>
<path d="M38.4765 41.7281H46.8648L46.0739 49.4328L38.4763 51.2211V57.4016L52.4415 54.0264L52.5439 53.0226L54.1449 37.3827L54.311 35.7874H38.4765V41.7281ZM38.4765 29.6895V29.7041H54.9309L55.0674 28.3689L55.3779 25.3571L55.5407 23.7634H38.4765V29.6897V29.6895Z" fill="white"/>
</g>
<defs>
<clipPath id="clip0_16_321">
<rect width="77" height="67.1506" fill="white" transform="translate(0 0.69873)"/>
</clipPath>
</defs>
</svg>
