<svg width="26" height="22" viewBox="0 0 26 22" fill="none" xmlns="http://www.w3.org/2000/svg">
<g clip-path="url(#clip0_16_512)">
<path d="M17.0916 15.8103H16.2816C15.3952 16.5007 14.5087 17.1324 13.6222 17.6985V19.5074C15.0365 19.1656 16.2816 17.771 17.0916 15.8103Z" fill="white"/>
<path d="M16.6241 2.396C17.4058 3.22103 18.0546 4.30489 18.526 5.57868H21.407C20.2265 4.14956 18.5664 3.03115 16.6241 2.396Z" fill="white"/>
<path d="M13.6183 16.2315C13.8157 16.0968 14.0172 15.9553 14.2146 15.8103H13.6183V16.2315Z" fill="white"/>
<path d="M13.6183 1.89893V5.57521H17.0795C16.2737 3.62835 15.0286 2.24414 13.6183 1.89893Z" fill="white"/>
<path d="M13.6183 10.1111H18.0346C17.9862 8.91329 17.7928 7.77069 17.4906 6.73853H13.6183V10.1111H13.6183Z" fill="white"/>
<path d="M18.5381 15.8103C18.0627 17.091 17.4058 18.1818 16.6201 19.0137C18.5704 18.3785 20.2386 17.2532 21.4232 15.8103H18.5381Z" fill="white"/>
<path d="M18.8969 6.74561C19.1749 7.78466 19.3481 8.9203 19.3884 10.1182H20.4281C21.242 9.14473 21.9351 8.17819 22.479 7.24273C22.3984 7.07357 22.3098 6.90788 22.2131 6.74913H18.8969V6.74561Z" fill="white"/>
<path d="M23.0673 8.7854C22.7731 9.22726 22.4548 9.66907 22.1123 10.1109H23.2889C23.2566 9.66218 23.1801 9.22032 23.0673 8.7854Z" fill="white"/>
<path d="M19.4059 11.2744H19.3965C19.3965 11.2789 19.3965 11.2833 19.3965 11.2833C19.3965 11.2833 19.3965 11.2788 19.4059 11.2744Z" fill="white"/>
<path d="M16.6645 13.891C17.0876 13.5285 17.4986 13.1557 17.8935 12.7863C17.9661 12.2962 18.0144 11.7922 18.0386 11.2778H13.6183V14.6504H15.7458C16.0561 14.4018 16.3583 14.1498 16.6645 13.891Z" fill="white"/>
<path d="M12.2603 6.74561H8.38807C8.08589 7.77772 7.89242 8.91689 7.84412 10.1182H12.2604V6.74561H12.2603Z" fill="white"/>
<path d="M4.47144 5.5821H7.35246C7.82791 4.31178 8.4807 3.2244 9.25434 2.39941C7.32023 3.0311 5.65614 4.1495 4.47144 5.5821Z" fill="white"/>
<path d="M2.59387 10.1111H6.49032C6.53464 8.91329 6.70387 7.78105 6.98192 6.73853H3.65766C3.0573 7.77069 2.68656 8.90981 2.59387 10.1111Z" fill="white"/>
<path d="M6.97777 14.6467C6.69971 13.6077 6.53049 12.472 6.49022 11.2742H2.58972C2.68241 12.4789 3.05308 13.618 3.64541 14.6467H6.97777Z" fill="white"/>
<path d="M8.80298 5.58215H12.2642V1.89893C10.854 2.24414 9.6129 3.62835 8.80298 5.58215Z" fill="white"/>
<path d="M12.2603 11.2744H7.84399C7.89236 12.4722 8.08172 13.6114 8.38396 14.647H12.2603V11.2744Z" fill="white"/>
<path d="M19.1869 13.3042C19.1103 13.7633 19.0176 14.2121 18.9008 14.6436H22.2291C22.8254 13.6149 23.1961 12.4757 23.2848 11.271H21.1411C20.5528 11.951 19.9041 12.6276 19.1869 13.3042Z" fill="white"/>
<path d="M12.2603 18.5337C11.9218 18.727 11.5954 18.9065 11.265 19.0791C11.5833 19.2827 11.9218 19.4243 12.2603 19.5071V18.5337Z" fill="white"/>
<path d="M12.2604 15.8103H8.79102C9.18588 16.7734 9.69362 17.5984 10.2658 18.2267C10.9105 17.9022 11.5754 17.5294 12.2604 17.1117V15.8103Z" fill="white"/>
<path d="M4.45935 15.8103C5.56746 17.1566 7.0986 18.2197 8.88368 18.8756C8.94813 18.8514 9.00453 18.8204 9.06499 18.7962C8.36789 17.9954 7.77962 16.984 7.34038 15.8103H4.45935Z" fill="white"/>
<path d="M24.1758 1.07341C22.7776 -0.124389 20.2109 -0.0519298 16.9349 1.24946C15.6858 0.862868 14.344 0.645382 12.9378 0.645382C6.4705 0.648853 1.20809 5.16053 1.20809 10.7008C1.20809 11.9021 1.45791 13.0585 1.91323 14.1251C0.390134 16.935 0.265224 19.1753 1.70368 20.3317C3.6217 21.8712 6.8855 21.0083 8.92843 20.1488C10.1816 20.5423 11.5354 20.7563 12.9417 20.7563C19.409 20.7563 24.6754 16.2481 24.6754 10.7043C24.6754 9.50299 24.4296 8.35351 23.9783 7.28338C25.5256 4.3804 25.5096 2.216 24.1758 1.07341ZM23.2168 1.89845C24.0227 2.58882 24.0066 4.00758 23.2088 5.84401C22.141 4.19399 20.5453 2.82703 18.6193 1.91228C20.7427 1.23222 22.419 1.21497 23.2168 1.89845ZM20.4325 10.1106H19.3929C19.3485 8.91279 19.1793 7.78056 18.9013 6.73804H22.2255C22.3222 6.90026 22.4068 7.06253 22.4915 7.23164C21.9435 8.17063 21.2464 9.14059 20.4325 10.1106ZM23.0677 8.78507C23.1765 9.2131 23.249 9.65496 23.2894 10.1106H22.1128C22.4633 9.66874 22.7736 9.22688 23.0677 8.78507ZM19.4049 11.2739C19.4009 11.2774 19.4009 11.2808 19.3969 11.2808C19.3969 11.2773 19.3969 11.2739 19.3969 11.2739H19.4049ZM18.5306 5.58167C18.0551 4.31136 17.4023 3.22398 16.6287 2.39899C18.5709 3.03415 20.231 4.15255 21.4116 5.58167H18.5306ZM13.6187 14.6464V11.2739H18.035C18.0149 11.7882 17.9624 12.2922 17.8899 12.7824C17.4951 13.1552 17.0841 13.5245 16.661 13.887C16.3588 14.1459 16.0525 14.3979 15.7503 14.643H13.6188V14.6464H13.6187ZM14.2231 15.8097C14.0257 15.9547 13.8242 16.0928 13.6267 16.2309V15.8097H14.2231ZM17.491 6.74498C17.7931 7.77709 17.9866 8.91626 18.0349 10.1175H13.6186V6.74498H17.491ZM13.6187 5.58167V1.89845C15.025 2.24019 16.2741 3.62787 17.08 5.57473H13.6187V5.58167ZM13.6187 17.6979C14.5052 17.1284 15.3916 16.4967 16.2781 15.8097H17.0881C16.2782 17.7704 15.033 19.1616 13.6187 19.5067V17.6979ZM16.6207 19.0096C17.4064 18.1812 18.0592 17.0869 18.5387 15.8062H21.4278C20.2431 17.2492 18.5708 18.3745 16.6207 19.0096ZM22.2377 14.6464H18.9094C19.0262 14.2184 19.1149 13.7662 19.1955 13.3071C19.9127 12.627 20.5614 11.9504 21.1537 11.2773H23.2974C23.2047 12.4786 22.834 13.6178 22.2377 14.6464ZM10.2703 18.2261C9.69409 17.5944 9.1904 16.7694 8.79548 15.8097H12.2648V17.1111C11.5838 17.5288 10.919 17.9016 10.2703 18.2261ZM12.2608 18.5333V19.5067C11.9183 19.4238 11.5879 19.2755 11.2655 19.0787C11.5959 18.9026 11.9304 18.7232 12.2608 18.5333ZM9.07353 18.7956C9.00908 18.8232 8.94862 18.8508 8.89221 18.875C7.10315 18.2226 5.57195 17.1525 4.46391 15.8097H7.35303C7.7881 16.9834 8.37238 17.9948 9.07353 18.7956ZM8.38447 14.6464C8.0823 13.6143 7.89288 12.4751 7.84451 11.2739H12.2608V14.6464H8.38447ZM7.84856 10.1106C7.89693 8.91279 8.09034 7.7702 8.39251 6.73804H12.2648V10.1106H7.84856ZM7.35297 5.58167H4.47189C5.65248 4.15255 7.31264 3.03068 9.25479 2.39899C8.48121 3.22398 7.82843 4.30789 7.35297 5.58167ZM6.98223 6.74498C6.70418 7.78403 6.53096 8.91968 6.49063 10.1175H2.59419C2.68688 8.91279 3.0616 7.77368 3.65798 6.74498H6.98223ZM6.49063 11.2739C6.53495 12.4717 6.70418 13.6039 6.97818 14.6465H3.64994C3.05356 13.6178 2.68289 12.4786 2.59425 11.2739H6.49063ZM12.2608 5.58167H8.79953C9.6135 3.63135 10.8546 2.24366 12.2608 1.90192V5.58167ZM2.66674 19.5068C1.86892 18.8233 1.88506 17.3873 2.67478 15.5647C3.73857 17.2112 5.33017 18.5713 7.24414 19.4895C5.10859 20.1661 3.44842 20.1799 2.66674 19.5068Z" fill="#194F82"/>
<path d="M19.4059 11.2744H19.3965C19.3965 11.2789 19.3965 11.2833 19.3965 11.2833C19.3965 11.2833 19.3965 11.2788 19.4059 11.2744Z" fill="white"/>
<path d="M17.954 4.28442C18.1675 4.68832 18.365 5.12324 18.5302 5.57545H19.6745C19.1668 5.08869 18.5906 4.65377 17.954 4.28442Z" fill="white"/>
<path d="M18.8969 6.74561C19.1749 7.78466 19.3481 8.9203 19.3885 10.1182H20.4281C20.8552 9.60726 21.246 9.09983 21.6047 8.59586C21.3871 7.93999 21.0687 7.32208 20.6698 6.74561H18.8969Z" fill="white"/>
<path d="M17.0916 15.8103H16.2816C15.3952 16.5007 14.5087 17.1324 13.6222 17.6985V18.3993C14.3717 18.3509 15.101 18.2267 15.79 18.0264C16.2937 17.4258 16.7289 16.6767 17.0916 15.8103Z" fill="white"/>
<path d="M12.2603 6.74561H8.38807C8.08589 7.77772 7.89242 8.91689 7.84412 10.1182H12.2604V6.74561H12.2603Z" fill="white"/>
<path d="M8.8031 5.58226H12.2644V3.00708C11.5149 3.0554 10.7856 3.17966 10.0965 3.3799C9.59694 3.97709 9.15371 4.72273 8.8031 5.58226Z" fill="white"/>
<path d="M7.93672 17.1221C7.71913 16.7078 7.52167 16.2729 7.34845 15.8103H6.18799C6.70377 16.3074 7.28799 16.7492 7.93672 17.1221Z" fill="white"/>
<path d="M12.2604 17.1151V15.8137H8.79102C9.14561 16.6801 9.58884 17.4327 10.0965 18.0333C10.2174 18.0678 10.3383 18.0989 10.4592 18.1265C11.0475 17.8227 11.6479 17.4879 12.2604 17.1151Z" fill="white"/>
<path d="M8.38396 14.647H12.2603V11.2744H7.84399C7.89236 12.4723 8.08577 13.6148 8.38396 14.647Z" fill="white"/>
<path d="M6.9778 14.647C6.69974 13.6079 6.53052 12.4723 6.49025 11.2744H3.95166C4.05644 12.4998 4.49562 13.6424 5.18867 14.647H6.9778Z" fill="white"/>
<path d="M6.20813 5.58229H7.35251C7.52174 5.12318 7.7192 4.69515 7.92869 4.29126C7.2961 4.65372 6.71182 5.08864 6.20813 5.58229Z" fill="white"/>
<path d="M13.6183 5.58221H17.0796C16.725 4.72268 16.2858 3.97704 15.7821 3.3799C15.093 3.18313 14.3678 3.0554 13.6143 3.00708V5.58221H13.6183Z" fill="white"/>
<path d="M6.49019 10.1111C6.5345 8.91329 6.70373 7.78105 6.98179 6.73853H5.20481C4.50771 7.73615 4.06448 8.88563 3.95166 10.1111H6.49019Z" fill="white"/>
<path d="M19.6987 15.8103H18.5382C18.3649 16.2729 18.1675 16.7113 17.95 17.1221C18.5946 16.7492 19.183 16.3074 19.6987 15.8103Z" fill="white"/>
<path d="M13.6183 15.8103V16.2314C13.8158 16.0968 14.0172 15.9553 14.2147 15.8103H13.6183Z" fill="white"/>
<path d="M21.1453 11.2745C20.5529 11.9476 19.9042 12.6242 19.187 13.3042C19.1104 13.7633 19.0177 14.2121 18.9009 14.6436H20.6819C21.375 13.6459 21.8142 12.4965 21.9189 11.271L21.1453 11.2745Z" fill="white"/>
<path d="M16.6645 13.891C17.0876 13.5285 17.4987 13.1557 17.8935 12.7863C17.9661 12.2962 18.0144 11.7922 18.0386 11.2778H13.6183V14.6504H15.7458C16.0561 14.4018 16.3583 14.1498 16.6645 13.891Z" fill="white"/>
<path d="M17.4905 6.74561H13.6183V10.1147H18.0346C17.9862 8.91342 17.7928 7.77772 17.4905 6.74561Z" fill="white"/>
</g>
<defs>
<clipPath id="clip0_16_512">
<rect width="24.4643" height="20.9581" fill="white" transform="translate(0.693848 0.222412)"/>
</clipPath>
</defs>
</svg>
