<svg width="104" height="106" viewBox="0 0 104 106" fill="none" xmlns="http://www.w3.org/2000/svg">
<path d="M51.7699 1.80874C51.9142 1.73397 52.0858 1.73397 52.2301 1.80874L52.9178 0.481875L52.2301 1.80874L101.326 27.2541C101.491 27.34 101.595 27.5112 101.595 27.698V78.2297C101.595 78.4165 101.491 78.5877 101.326 78.6736L52.2301 104.119C52.0858 104.194 51.9142 104.194 51.7699 104.119L2.67443 78.6736L1.9842 80.0054L2.67442 78.6736C2.5086 78.5877 2.4045 78.4165 2.4045 78.2297V27.698C2.4045 27.5112 2.5086 27.34 2.67443 27.2541L51.7699 1.80874L51.0822 0.481876L51.7699 1.80874Z" stroke="#4F89FD" stroke-width="3"/>
</svg>
