<svg width="31" height="30" viewBox="0 0 31 30" fill="none" xmlns="http://www.w3.org/2000/svg">
<g clip-path="url(#clip0_304_49)">
<path d="M1.24466 22.5003C2.51201 22.3456 3.79714 22.5123 5.06449 22.304C5.70109 22.2029 6.2842 21.9887 6.86135 21.7626C5.43342 20.8464 4.14815 19.7992 2.95233 18.5438C2.52395 18.0975 2.83329 17.3478 3.45807 17.3301C3.96979 17.3538 4.46957 17.3123 4.9574 17.211C3.7138 15.6343 2.74995 13.9386 2.00029 12.0346C1.79804 11.5229 2.39297 11.0054 2.87496 11.16C3.15457 11.273 3.44016 11.3504 3.73172 11.4099C2.84523 9.27978 2.66077 7.13192 3.15457 4.77571C3.26764 4.23426 3.9816 4.10341 4.34456 4.46039C7.1886 7.25667 10.7823 8.60139 14.6259 9.24395C14.2867 6.6141 16.1551 3.8177 18.6063 2.90136C20.6412 2.14572 23.3722 2.66341 24.7407 4.37692C25.657 3.79978 26.9243 3.60935 27.9417 3.43086C28.4772 3.34155 28.9949 3.86521 28.6796 4.39471C28.3106 5.01352 27.9596 5.67387 27.5729 6.30463C28.3583 6.07252 29.1675 5.92973 29.9766 5.82861C30.5598 5.75124 30.9108 6.64967 30.4646 7.00665C29.5185 7.76228 28.5784 8.62501 27.5729 9.31522C27.5432 15.9969 25.5916 21.6018 19.6239 25.4037C14.6497 28.5811 5.40356 28.0456 1.07811 23.72H1.07214C0.881702 23.6724 0.780579 23.5296 0.744881 23.375C0.578332 23.1251 0.69724 22.8158 0.917401 22.6967C1.00074 22.5955 1.10783 22.5181 1.24466 22.5003Z" fill="white"/>
</g>
<defs>
<clipPath id="clip0_304_49">
<rect width="30" height="30" fill="white" transform="translate(0.666626)"/>
</clipPath>
</defs>
</svg>
